<svg xmlns="http://www.w3.org/2000/svg" viewBox="0 0 39.16 39.77"><defs><style>.cls-1{fill:#8e38a3;}</style></defs><g id="Layer_2" data-name="Layer 2"><g id="Ebene_1" data-name="Ebene 1"><path class="cls-1" d="M8.31,23.34Q19.65,12,31,.59A6,6,0,0,0,28.51,0Q16.77,11.76,5,23.54l3.22-.2Z"/><path class="cls-1" d="M.58,34.69C-.06,36.15-.82,39.53,2.21,39l2.1-.66A7.81,7.81,0,0,0,.58,34.69Z"/><path class="cls-1" d="M10.74,28c.48.51,2.55.76,3.34.85L29.36,13.51l8.07-8.07L33.29,1.71,10,25Z"/><path class="cls-1" d="M38.61,7.74,15.66,30.62c.06,1,.13,1.93.19,2.88h.07L39.07,10.29A3.6,3.6,0,0,0,38.61,7.74Z"/><path class="cls-1" d="M13.66,31.15,9,30.16c-.29-1.44-.57-2.88-.86-4.33H6.77L3.83,26,1.66,32.39c2.27.74,4.25,3.12,5.25,5.18l7-2.16C13.79,34,13.73,32.57,13.66,31.15Z"/><polygon class="cls-1" points="13.86 39.77 31.69 39.77 31.69 38.26 15.15 38.26 13.86 39.77"/></g></g></svg>