<svg xmlns="http://www.w3.org/2000/svg" viewBox="0 0 39.77 39.6"><defs><style>.cls-1{fill:#a43da1;}</style></defs><g id="Layer_2" data-name="Layer 2"><g id="Ebene_1" data-name="Ebene 1"><path class="cls-1" d="M7.66,1.6h0C5.72-.33,2.8-.54,1.13,1.13s-1.46,4.59.46,6.52h0A9.34,9.34,0,0,1,3.94,3.94,9.52,9.52,0,0,1,7.66,1.6Z"/><path class="cls-1" d="M36.45,7.6a6.6,6.6,0,0,0-1.94-.3,11,11,0,0,0-3.24.5,21.09,21.09,0,0,0-2.73,1C19.65,1.24,10.65-.35,5.15,5.14S1.26,19.72,8.92,28.65a19.48,19.48,0,0,0-1,2.66,11.07,11.07,0,0,0-.48,3.2,6.45,6.45,0,0,0,.3,1.88,4.6,4.6,0,0,0,1.16,1.89,4.53,4.53,0,0,0,1.9,1.09,5.89,5.89,0,0,0,1.86.23,10.74,10.74,0,0,0,3.12-.6,24.45,24.45,0,0,0,5.15-2.54,44.23,44.23,0,0,0,4.48-3.26,49.45,49.45,0,0,0,4.06-3.72c.65-.64,1.28-1.31,1.9-2s1.23-1.36,1.82-2.07,1.17-1.42,1.72-2.16S36,21.76,36.53,21s1-1.6,1.44-2.45a18.69,18.69,0,0,0,1.18-2.69,10.69,10.69,0,0,0,.62-3.17,6.22,6.22,0,0,0-.24-1.91,5,5,0,0,0-.43-1c-.1-.16-.2-.33-.32-.49L38.59,9l-.12-.13,0-.07,0,0A4.85,4.85,0,0,0,36.45,7.6Zm-.83,4.07.05.07a.92.92,0,0,1,.1.2,2.57,2.57,0,0,1,.12.73,7.08,7.08,0,0,1-.3,2.07,20.38,20.38,0,0,1-1.92,4.51,37.22,37.22,0,0,1-6.28,8.14,48.77,48.77,0,0,1-3.88,3.45,35.92,35.92,0,0,1-4.22,2.9,25.11,25.11,0,0,1-2.24,1.16,15.66,15.66,0,0,1-2.27.85,6.93,6.93,0,0,1-2.12.31,2.15,2.15,0,0,1-.78-.13.73.73,0,0,1-.37-.25.93.93,0,0,1-.19-.4,2.42,2.42,0,0,1-.06-.75,7.6,7.6,0,0,1,.43-2.05,21.63,21.63,0,0,1,2.18-4.32,41.76,41.76,0,0,1,3-4.07c.29-.35.58-.69.88-1a4.63,4.63,0,1,0,5.39-5.3l1-.83a42.82,42.82,0,0,1,4.09-3,21.07,21.07,0,0,1,4.3-2.15,7.72,7.72,0,0,1,2-.41,2.75,2.75,0,0,1,.7.06,1,1,0,0,1,.33.15l0,0,.05.06s0,0,0,0Z"/></g></g></svg>