<svg xmlns="http://www.w3.org/2000/svg" viewBox="0 0 42.72 34.81"><defs><style>.cls-1{fill:#fff;}</style></defs><g id="Layer_2" data-name="Layer 2"><g id="Ebene_1" data-name="Ebene 1"><path class="cls-1" d="M35.78,6.72C33.26,6.2,32.64,5,31.94,3.05A4.36,4.36,0,0,0,28,0H14.72a4.38,4.38,0,0,0-3.94,3.05C10.08,5,9.46,6.2,7,6.72,5.28,7.06,0,7.75,0,11.25V31.46a3.36,3.36,0,0,0,3.35,3.35h36a3.35,3.35,0,0,0,3.35-3.35V11.25C42.72,7.75,37.45,7.06,35.78,6.72ZM21.59,31.92A11.87,11.87,0,1,1,33.45,20.06,11.88,11.88,0,0,1,21.59,31.92Z"/><path class="cls-1" d="M28.38,20.05a7,7,0,1,1-7-7A7,7,0,0,1,28.38,20.05Z"/></g></g></svg>