<svg xmlns="http://www.w3.org/2000/svg" viewBox="0 0 42.77 43.02"><defs><style>.cls-1{fill:#a43da1;}</style></defs><g id="Layer_2" data-name="Layer 2"><g id="Ebene_1" data-name="Ebene 1"><path class="cls-1" d="M5.87,18.35l.42-.41-.41.25S5.87,18.3,5.87,18.35Z"/><path class="cls-1" d="M11.41,4.25,7.07,5a.9.9,0,0,0-.88.83s.11,2.89,0,6.22c.56-.68,1.07-1.35,1.52-2A62.23,62.23,0,0,0,11.41,4.25Z"/><path class="cls-1" d="M36.69,9.94l-.41.26L37,11.41l-8.51,5.22a.85.85,0,0,0-.41,1.11L31,22.52a.85.85,0,0,0,1.18.13l8.71-5.34.14-.1.07,0,.58-.36a.53.53,0,0,0,.15-.61l-3.68-6A1.08,1.08,0,0,0,36.69,9.94Zm-.08,5.91A.83.83,0,0,1,36.29,17L32.1,19.53A.82.82,0,0,1,31,19.32l0-.05a.83.83,0,0,1,.32-1.12l4.19-2.57a.83.83,0,0,1,1.14.22Z"/><path class="cls-1" d="M26.14,16.41,35,11l-2.21-3.6a2.08,2.08,0,0,0-2.87-.54L3.19,23.25a2.57,2.57,0,0,1-3,.14L11.48,41.73l.25.41a2.05,2.05,0,0,0,2.86.53l27.1-16.62a2.06,2.06,0,0,0,.82-2.79l-.25-.41-2.08-3.4-8.84,5.43a1.09,1.09,0,0,1-1.5-.28l-4.13-6.72A1.09,1.09,0,0,1,26.14,16.41Z"/><path class="cls-1" d="M36.35,8.07l-.58.35c-.23.14-.24.56,0,.92l.52.86L37,11.41l-8.51,5.22a.85.85,0,0,0-.41,1.11L31,22.52a.86.86,0,0,0,1.18.13l8.71-5.34.14-.1.07,0,.58-.36c.17-.1.77-.6-1.79-4.76S36.59,7.92,36.35,8.07Zm.26,7.78A.83.83,0,0,1,36.29,17L32.1,19.53A.82.82,0,0,1,31,19.32l0-.05a.83.83,0,0,1,.32-1.12l4.19-2.57a.83.83,0,0,1,1.14.22Z"/><path class="cls-1" d="M16.12.1A.91.91,0,0,0,15,.41a97.39,97.39,0,0,1-6.3,10.81c-2.81,3.86-8.5,10-8.5,10a.73.73,0,0,0,.22,1.09l.38.23A2.73,2.73,0,0,0,2.4,22L28.54,6Z"/></g></g></svg>