<svg xmlns="http://www.w3.org/2000/svg" xmlns:xlink="http://www.w3.org/1999/xlink" viewBox="0 0 193.81 180.79"><defs><style>.cls-1{fill:none;}.cls-2{fill:#8e38a3;}.cls-3{fill:#842a7c;}.cls-4{clip-path:url(#clip-path);}.cls-5{fill:#712b82;}.cls-6{fill:#fff;}.cls-7,.cls-9{fill:#cf9ce8;}.cls-8{fill:#b253c9;}.cls-9{opacity:0.54;}.cls-10{fill:#cc9ce8;}</style><clipPath id="clip-path"><circle class="cls-1" cx="77" cy="77" r="77"/></clipPath></defs><g id="Layer_2" data-name="Layer 2"><g id="Layer_1-2" data-name="Layer 1"><circle class="cls-2" cx="77" cy="77" r="77"/><rect class="cls-3" x="21.96" y="42.3" width="22.56" height="6.9"/><rect class="cls-3" x="47.9" y="22.05" width="58.33" height="7.32"/><g class="cls-4"><polygon class="cls-5" points="20.57 126.37 102.7 180.79 193.81 105.75 132.24 42.3 106.28 22.05 106.23 29.37 20.57 126.37"/></g><rect class="cls-6" x="42.56" y="29.37" width="69" height="97"/><rect class="cls-7" x="20.57" y="49.2" width="21.93" height="77.17"/><rect class="cls-8" x="62.86" y="98.9" width="28.28" height="27.67"/><rect class="cls-8" x="52.18" y="41.24" width="46.52" height="5.33"/><rect class="cls-8" x="52.33" y="54.64" width="46.52" height="5.33"/><rect class="cls-8" x="52.33" y="68.05" width="46.52" height="5.33"/><rect class="cls-8" x="52.33" y="81.46" width="46.52" height="5.33"/><rect class="cls-9" x="77" y="29.37" width="34.5" height="97.2"/><rect class="cls-8" x="25.52" y="54.64" width="12.04" height="5.33"/><rect class="cls-8" x="25.52" y="68.05" width="12.04" height="5.33"/><rect class="cls-8" x="25.52" y="81.46" width="12.04" height="5.33"/><rect class="cls-8" x="25.52" y="94.87" width="12.04" height="5.33"/><rect class="cls-10" x="111.5" y="49.2" width="21.93" height="77.17"/><rect class="cls-8" x="116.45" y="56.01" width="12.04" height="5.33"/><rect class="cls-8" x="116.45" y="69.42" width="12.04" height="5.33"/><rect class="cls-8" x="116.45" y="82.83" width="12.04" height="5.33"/><rect class="cls-8" x="116.45" y="96.24" width="12.04" height="5.33"/><rect class="cls-7" x="47.9" y="22.05" width="58.33" height="5.72"/><rect class="cls-7" x="21.96" y="42.3" width="19.56" height="5.72"/><rect class="cls-10" x="112.69" y="42.3" width="19.56" height="5.72"/></g></g></svg>