<svg xmlns="http://www.w3.org/2000/svg" xmlns:xlink="http://www.w3.org/1999/xlink" viewBox="0 0 184.76 177.41"><defs><style>.cls-1{fill:none;}.cls-2{fill:#8e38a3;}.cls-3{clip-path:url(#clip-path);}.cls-4{fill:#712b82;}.cls-5{fill:#d159c0;}.cls-6{fill:#cf9ce8;}.cls-7{fill:#b253c9;}.cls-8{fill:#fff;}.cls-9{fill:#f4d0ea;}</style><clipPath id="clip-path"><circle class="cls-1" cx="77.01" cy="77" r="77"/></clipPath></defs><g id="Layer_2" data-name="Layer 2"><g id="Layer_1-2" data-name="Layer 1"><circle class="cls-2" cx="77" cy="77" r="77"/><g class="cls-3"><path class="cls-4" d="M19.59,119.61l-.52,3.91,81.32,53.89,84.37-68.29L122.41,52.84,94.65,26.61,64.44,69.84c.5,2.5,3.38,14.66,1.47,13.81-2.1-.93-6.07.92-6.07.92Z"/></g><path class="cls-5" d="M74.89,106.94a3,3,0,0,0,4.23,0S76.6,112.34,74.89,106.94Z"/><path class="cls-6" d="M78.27,94.82a1.79,1.79,0,0,0-2.53,0l-5.22,5.23a1.77,1.77,0,0,0,0,2.52l4.38,4.37c-1.88,4.38-3.78,13.65-4.13,24.73H83.25c-.35-11.08-2.24-20.35-4.13-24.73l4.38-4.37a1.77,1.77,0,0,0,0-2.52Z"/><path class="cls-6" d="M27.75,96.3c-8.11,4-9,22.43-9,26.4s15.71,9,48.83,9l-7.76-47.1C47.24,90.44,35.85,92.34,27.75,96.3Z"/><path class="cls-6" d="M126.26,96.3c-8.1-4-19.49-5.86-32.08-11.73l-7.76,47.1c33.11,0,48.81-5,48.81-9S134.37,100.27,126.26,96.3Z"/><path class="cls-7" d="M43.18,90.81l18.67,40.86H67.6l-7.76-47.1S47.28,89.53,43.18,90.81Z"/><path class="cls-8" d="M65.91,85.36V78.6c0-5.34-5-11.39-10.68-15.29S50.07,54.26,51.33,53c1.68-1.7,2.84-4.62,2.84-11.73s3.51-20.78,14.06-22.41c13.68-2.13,9.77,4.62,17.59,5.34,10.62,1,13.87,7.11,13.87,14.22s.93,13,2.85,14.58c1.39,1.2,1.77,6.4-3.91,10.32S88,73.26,88,78.6v6.76l-1.1.57a21.66,21.66,0,0,1-20.94-.57Z"/><path class="cls-6" d="M63.81,72.09s13.75,19.1,26.24,0C90.05,74.76,77.84,96.71,63.81,72.09Z"/><path class="cls-6" d="M55.39,49.2S57,32.66,67.6,32.66s18.87,13,22.45,8.27,8.83,2.3,8.58,8.27c0,0-1.64-20.1-12.21-13S61,7.08,55.39,49.2Z"/><path class="cls-7" d="M110.84,90.81,92.17,131.67H86.43l7.76-47.1S106.74,89.53,110.84,90.81Z"/><rect class="cls-9" x="99.85" y="124.73" width="13.04" height="1.33"/></g></g></svg>